# Blender v2.80 (sub 75) OBJ File: ''
# www.blender.org
mtllib model.mtl
o Куб
v -2.315017 -2.315020 2.315017
v -2.315017 2.315020 2.315017
v -2.315017 -2.315020 -2.315017
v -2.315017 2.315020 -2.315017
v 2.315017 -2.315020 2.315017
v 2.315017 2.315020 2.315017
v 2.315017 -2.315020 -2.315017
v 2.315017 2.315020 -2.315017
vt -0.001512 0.382547
vt -0.001512 0.615586
vt 0.248214 0.615586
vt 0.248214 0.382547
vt 0.501843 0.615586
vt 0.501843 0.382547
vt 0.671324 0.615586
vt 0.671324 0.382547
vt 0.997391 0.615586
vt 0.501843 0.996541
vt 0.671324 0.996541
vt 0.501843 0.002513
vt 0.997391 0.382547
vt 0.671324 0.002513
vn 1.0000 0.0000 0.0000
vn 0.0000 0.0000 1.0000
vn -1.0000 0.0000 0.0000
vn 0.0000 0.0000 -1.0000
vn 0.0000 1.0000 0.0000
vn 0.0000 -1.0000 0.0000
usemtl Материал
s off
f 2/1/1 1/2/1 3/3/1
f 4/4/2 3/3/2 7/5/2
f 8/6/3 7/5/3 5/7/3
f 6/8/4 5/7/4 1/9/4
f 7/5/5 3/10/5 1/11/5
f 4/12/6 8/6/6 6/8/6
f 2/1/1 3/3/1 4/4/1
f 4/4/2 7/5/2 8/6/2
f 8/6/3 5/7/3 6/8/3
f 6/8/4 1/9/4 2/13/4
f 7/5/5 1/11/5 5/7/5
f 4/12/6 6/8/6 2/14/6
